<mxfile host="app.diagrams.net" modified="2024-07-17T07:30:44.753Z" agent="Mozilla/5.0 (Macintosh; Intel Mac OS X 10_15_7) AppleWebKit/537.36 (KHTML, like Gecko) Chrome/126.0.0.0 Safari/537.36" version="24.7.0" etag="1_0lz4dyXgiDJUh8juHz" type="github">
  <diagram name="페이지-1" id="g4j54r60O3bOHGbaknaM">
    <mxGraphModel>
      <root>
        <mxCell id="0" />
        <mxCell id="1" parent="0" />
      </root>
    </mxGraphModel>
  </diagram>
</mxfile>
